<?xml version="1.0" encoding="UTF-8" standalone="no"?>
<!-- Created with Inkscape (http://www.inkscape.org/) -->

<svg
   width="351mm"
   height="483mm"
   viewBox="0 0 351 483"
   version="1.1"
   id="svg5"
   inkscape:version="1.2.1 (9c6d41e410, 2022-07-14)"
   sodipodi:docname="hand-middle-finger.svg"
   xmlns:inkscape="http://www.inkscape.org/namespaces/inkscape"
   xmlns:sodipodi="http://sodipodi.sourceforge.net/DTD/sodipodi-0.dtd"
   xmlns="http://www.w3.org/2000/svg"
   xmlns:svg="http://www.w3.org/2000/svg">
  <sodipodi:namedview
     id="namedview7"
     pagecolor="#ffffff"
     bordercolor="#666666"
     borderopacity="1.0"
     inkscape:showpageshadow="2"
     inkscape:pageopacity="0.0"
     inkscape:pagecheckerboard="0"
     inkscape:deskcolor="#d1d1d1"
     inkscape:document-units="mm"
     showgrid="true"
     inkscape:zoom="0.2973261"
     inkscape:cx="-679.38873"
     inkscape:cy="773.56142"
     inkscape:window-width="1920"
     inkscape:window-height="1027"
     inkscape:window-x="-8"
     inkscape:window-y="-8"
     inkscape:window-maximized="1"
     inkscape:current-layer="layer1">
    <inkscape:grid
       type="xygrid"
       id="grid686"
       spacingx="6.6145831"
       spacingy="6.6145831"
       originx="256.00016"
       originy="255.99947"
       enabled="false" />
  </sodipodi:namedview>
  <defs
     id="defs2" />
  <g
     inkscape:label="Layer 1"
     inkscape:groupmode="layer"
     id="layer1">
    <g
       id="g4669"
       transform="rotate(95.367836,205.71404,163.38642)"
       style="stroke-width:2;stroke-dasharray:none">
      <path
         style="fill:none;stroke:#000000;stroke-width:2;stroke-linecap:butt;stroke-linejoin:miter;stroke-opacity:1;stroke-dasharray:none"
         d="m 314.41545,243.41046 7.11901,-9.78864 15.1279,-5.33926"
         id="path809"
         sodipodi:nodetypes="ccc" />
      <path
         style="fill:#e5e5e5;fill-opacity:1;stroke:#000000;stroke-width:2;stroke-linecap:butt;stroke-linejoin:miter;stroke-opacity:1;stroke-dasharray:none"
         d="m 326.63929,267.93986 c 0,0 -1.46745,-9.30496 -3.03824,-13.71673 -4.13999,-11.62774 -8.76539,-23.57478 -16.64137,-33.07809 -8.10146,-9.77537 -18.2999,-18.86498 -30.25579,-23.13677 -8.34666,-2.98223 -18.39269,-4.29629 -26.57541,-0.88988 -10.46357,4.35591 -20.52758,13.8869 -23.13677,24.91652 -3.41429,14.43292 4.12344,30.44632 12.45826,42.71405 7.60253,11.18989 19.58299,19.63009 32.03552,24.91653 17.37614,7.37664 37.2263,9.25608 56.06216,8.00885 15.30647,-1.01353 31.39222,-4.17188 44.30157,-12.45825 11.38744,-7.30947 22.51342,-17.95208 26.26418,-30.95338 3.48833,-12.09163 0.98333,-26.49357 -5.33923,-37.3748 -6.85211,-11.7926 -20.254,-18.73586 -32.32486,-25.08498 -12.13874,-6.38483 -39.20411,-12.49294 -39.20411,-12.49294"
         id="path4659"
         sodipodi:nodetypes="caaaaaaaaaaaac" />
    </g>
  </g>
</svg>
