<?xml version="1.0" encoding="UTF-8" standalone="no"?>
<!-- Created with Inkscape (http://www.inkscape.org/) -->

<svg
   width="351mm"
   height="483mm"
   viewBox="0 0 351 483"
   version="1.1"
   id="svg5"
   inkscape:version="1.2.1 (9c6d41e410, 2022-07-14)"
   sodipodi:docname="hand-little-finger.svg"
   xmlns:inkscape="http://www.inkscape.org/namespaces/inkscape"
   xmlns:sodipodi="http://sodipodi.sourceforge.net/DTD/sodipodi-0.dtd"
   xmlns="http://www.w3.org/2000/svg"
   xmlns:svg="http://www.w3.org/2000/svg">
  <sodipodi:namedview
     id="namedview7"
     pagecolor="#ffffff"
     bordercolor="#666666"
     borderopacity="1.0"
     inkscape:showpageshadow="2"
     inkscape:pageopacity="0.0"
     inkscape:pagecheckerboard="0"
     inkscape:deskcolor="#d1d1d1"
     inkscape:document-units="mm"
     showgrid="true"
     inkscape:zoom="0.2973261"
     inkscape:cx="-679.38873"
     inkscape:cy="773.56142"
     inkscape:window-width="1920"
     inkscape:window-height="1027"
     inkscape:window-x="-8"
     inkscape:window-y="-8"
     inkscape:window-maximized="1"
     inkscape:current-layer="layer1">
    <inkscape:grid
       type="xygrid"
       id="grid686"
       spacingx="6.6145831"
       spacingy="6.6145831"
       originx="256.00016"
       originy="255.99947"
       enabled="false" />
  </sodipodi:namedview>
  <defs
     id="defs2" />
  <g
     inkscape:label="Layer 1"
     inkscape:groupmode="layer"
     id="layer1">
    <g
       id="g4665"
       transform="rotate(95.367836,206.97139,158.31988)"
       style="stroke-width:2;stroke-dasharray:none">
      <path
         style="fill:#e5e5e5;fill-opacity:1;stroke:#000000;stroke-width:2;stroke-linecap:butt;stroke-linejoin:miter;stroke-opacity:1;stroke-dasharray:none"
         d="m 341.01471,271.48348 c 0,0 19.75962,5.78309 25.8064,13.34815 4.4022,5.50754 5.42074,13.4169 5.33924,20.46713 -0.1248,10.79661 -1.8506,22.96608 -8.89876,31.14567 -9.35845,10.86074 -25.00913,15.46421 -39.15452,17.79751 -17.6478,2.91103 -36.83075,1.41544 -53.39255,-5.33926 -16.08126,-6.55871 -31.22834,-17.98267 -40.6816,-32.5518 -7.67558,-11.82942 -12.30862,-26.92742 -10.67851,-40.93429 0.65958,-5.66745 3.77894,-11.29871 8.00888,-15.12789 5.81916,-5.26782 21.80196,-8.89876 21.80196,-8.89876"
         id="path4661"
         sodipodi:nodetypes="caaaaaaaac" />
      <path
         style="fill:none;stroke:#000000;stroke-width:2;stroke-linecap:butt;stroke-linejoin:miter;stroke-opacity:1;stroke-dasharray:none"
         d="m 308.08931,289.281 16.01775,12.45827 5.33926,11.56838"
         id="path813" />
    </g>
  </g>
</svg>
