<?xml version="1.0" encoding="UTF-8" standalone="no"?>
<!-- Created with Inkscape (http://www.inkscape.org/) -->

<svg
   width="351mm"
   height="483mm"
   viewBox="0 0 351 483"
   version="1.1"
   id="svg5"
   inkscape:version="1.2.1 (9c6d41e410, 2022-07-14)"
   sodipodi:docname="hand-index.svg"
   xmlns:inkscape="http://www.inkscape.org/namespaces/inkscape"
   xmlns:sodipodi="http://sodipodi.sourceforge.net/DTD/sodipodi-0.dtd"
   xmlns="http://www.w3.org/2000/svg"
   xmlns:svg="http://www.w3.org/2000/svg">
  <sodipodi:namedview
     id="namedview7"
     pagecolor="#ffffff"
     bordercolor="#666666"
     borderopacity="1.0"
     inkscape:showpageshadow="2"
     inkscape:pageopacity="0.0"
     inkscape:pagecheckerboard="0"
     inkscape:deskcolor="#d1d1d1"
     inkscape:document-units="mm"
     showgrid="true"
     inkscape:zoom="0.2973261"
     inkscape:cx="-679.38873"
     inkscape:cy="773.56142"
     inkscape:window-width="1920"
     inkscape:window-height="1027"
     inkscape:window-x="-8"
     inkscape:window-y="-8"
     inkscape:window-maximized="1"
     inkscape:current-layer="layer1">
    <inkscape:grid
       type="xygrid"
       id="grid686"
       spacingx="6.6145831"
       spacingy="6.6145831"
       originx="256.00016"
       originy="255.99947"
       enabled="false" />
  </sodipodi:namedview>
  <defs
     id="defs2" />
  <g
     inkscape:label="Layer 1"
     inkscape:groupmode="layer"
     id="layer1">
    <path
       style="fill:#e5e5e5;fill-opacity:1;stroke:#000000;stroke-width:2;stroke-linecap:butt;stroke-linejoin:miter;stroke-opacity:1;stroke-dasharray:none"
       d="m 256.61998,243.01751 c 0,0 -13.18257,21.37502 -17.52781,33.06978 -9.87316,26.57257 -15.17585,54.8139 -18.90019,82.91569 -2.45796,18.5464 -0.50124,37.45188 -2.21132,56.08213 -1.58257,17.24154 2.35506,37.12747 -7.43628,51.407 -5.55592,8.10266 -15.9366,13.26157 -25.68918,14.44847 -8.57458,1.04355 -18.1377,-1.63504 -24.97387,-6.91512 -8.01068,-6.18726 -12.10242,-16.64235 -15.23514,-26.26728 -4.41181,-13.55482 -5.21961,-28.3015 -4.42857,-42.53425 1.01137,-18.19692 7.51123,-35.67063 11.65344,-53.41867 8.30405,-35.58013 26.457,-106.368 26.457,-106.368"
       id="path805"
       sodipodi:nodetypes="caaaaaaaaac" />
  </g>
</svg>
