<?xml version="1.0" encoding="UTF-8" standalone="no"?>
<!-- Created with Inkscape (http://www.inkscape.org/) -->

<svg
   width="464mm"
   height="343mm"
   viewBox="0 0 464 343"
   version="1.1"
   id="svg5"
   inkscape:version="1.2.1 (9c6d41e410, 2022-07-14)"
   sodipodi:docname="hand.svg"
   xmlns:inkscape="http://www.inkscape.org/namespaces/inkscape"
   xmlns:sodipodi="http://sodipodi.sourceforge.net/DTD/sodipodi-0.dtd"
   xmlns="http://www.w3.org/2000/svg"
   xmlns:svg="http://www.w3.org/2000/svg">
  <sodipodi:namedview
     id="namedview7"
     pagecolor="#ffffff"
     bordercolor="#666666"
     borderopacity="1.0"
     inkscape:showpageshadow="2"
     inkscape:pageopacity="0.0"
     inkscape:pagecheckerboard="0"
     inkscape:deskcolor="#d1d1d1"
     inkscape:document-units="mm"
     showgrid="true"
     inkscape:zoom="0.2973261"
     inkscape:cx="31.95145"
     inkscape:cy="830.7377"
     inkscape:window-width="1920"
     inkscape:window-height="1027"
     inkscape:window-x="-8"
     inkscape:window-y="-8"
     inkscape:window-maximized="1"
     inkscape:current-layer="layer1">
    <inkscape:grid
       type="xygrid"
       id="grid686"
       spacingx="6.6145831"
       spacingy="6.6145831"
       originx="255.99998"
       originy="255.99947"
       enabled="false" />
  </sodipodi:namedview>
  <defs
     id="defs2" />
  <g
     inkscape:label="Layer 1"
     inkscape:groupmode="layer"
     id="layer1">
    <g
       id="g12673"
       transform="rotate(-9.6321642,159.77133,368.1854)"
       style="stroke-width:2;stroke-dasharray:none">
      <path
         style="fill:#e5e5e5;fill-opacity:1;stroke:#000000;stroke-width:2;stroke-linecap:butt;stroke-linejoin:miter;stroke-opacity:1;stroke-dasharray:none"
         d="m 100.11104,114.79399 c -1.222606,-4.23677 -4.889268,-7.95315 -8.89876,-9.78863 -5.261029,-2.40842 -11.772059,-1.97356 -17.352581,-0.44494 -8.612345,2.3591 -16.71068,7.60751 -22.691836,14.23801 -7.197298,7.97868 -10.843524,18.72598 -14.238012,28.92097 -4.576255,13.7443 -6.726024,28.28483 -8.008885,42.71404 -1.641835,18.46683 -4.159285,37.65839 0.444939,55.61725 2.719134,10.60603 7.028329,22.07455 15.572827,28.92095 3.84742,3.0828 9.30871,4.09523 14.238015,4.00444 4.361267,-0.0803 9.589019,-0.71894 12.458264,-4.00444 C 107.30629,234.12531 115.1466,166.89768 100.11104,114.79399 Z"
         id="path1021"
         sodipodi:nodetypes="aaaaaaaaaaa" />
      <path
         style="fill:#e5e5e5;fill-opacity:1;stroke:#000000;stroke-width:2;stroke-linecap:butt;stroke-linejoin:miter;stroke-opacity:1;stroke-dasharray:none"
         d="m 257.47938,105.93129 -115.54417,14.6469 c 0,0 -50.491001,49.01995 -71.635014,76.97426 -5.861457,7.74938 -12.979099,15.44064 -15.127891,24.91652 -2.637032,11.62895 -1.338746,24.72336 3.559503,35.59504 8.967252,19.90285 26.008844,36.44115 44.493792,48.05329 33.36963,20.96261 73.81318,30.67526 113.01424,34.70516 22.22644,2.2849 47.53863,5.19528 66.74068,-6.22911 28.84649,-17.16242 47.84403,-51.10407 56.06219,-83.64835 6.45686,-25.56949 1.27749,-53.90811 -7.56393,-78.75402 -5.37833,-15.11404 -14.89742,-29.17483 -26.69627,-40.04441 -13.25859,-12.21435 -47.30313,-26.21528 -47.30313,-26.21528 z"
         id="path1025"
         sodipodi:nodetypes="ccaaaaaaaaac" />
      <g
         id="g4665"
         transform="translate(-29.17362,4.96568)"
         style="stroke-width:2;stroke-dasharray:none">
        <path
           style="fill:#e5e5e5;fill-opacity:1;stroke:#000000;stroke-width:2;stroke-linecap:butt;stroke-linejoin:miter;stroke-opacity:1;stroke-dasharray:none"
           d="m 341.01471,271.48348 c 0,0 19.75962,5.78309 25.8064,13.34815 4.4022,5.50754 5.42074,13.4169 5.33924,20.46713 -0.1248,10.79661 -1.8506,22.96608 -8.89876,31.14567 -9.35845,10.86074 -25.00913,15.46421 -39.15452,17.79751 -17.6478,2.91103 -36.83075,1.41544 -53.39255,-5.33926 -16.08126,-6.55871 -31.22834,-17.98267 -40.6816,-32.5518 -7.67558,-11.82942 -12.30862,-26.92742 -10.67851,-40.93429 0.65958,-5.66745 3.77894,-11.29871 8.00888,-15.12789 5.81916,-5.26782 21.80196,-8.89876 21.80196,-8.89876"
           id="path4661"
           sodipodi:nodetypes="caaaaaaaac" />
        <path
           style="fill:none;stroke:#000000;stroke-width:2;stroke-linecap:butt;stroke-linejoin:miter;stroke-opacity:1;stroke-dasharray:none"
           d="m 308.08931,289.281 16.01775,12.45827 5.33926,11.56838"
           id="path813" />
      </g>
      <g
         id="g4669"
         transform="translate(-22.754322,0.67700333)"
         style="stroke-width:2;stroke-dasharray:none">
        <path
           style="fill:none;stroke:#000000;stroke-width:2;stroke-linecap:butt;stroke-linejoin:miter;stroke-opacity:1;stroke-dasharray:none"
           d="m 314.41545,243.41046 7.11901,-9.78864 15.1279,-5.33926"
           id="path809"
           sodipodi:nodetypes="ccc" />
        <path
           style="fill:#e5e5e5;fill-opacity:1;stroke:#000000;stroke-width:2;stroke-linecap:butt;stroke-linejoin:miter;stroke-opacity:1;stroke-dasharray:none"
           d="m 326.63929,267.93986 c 0,0 -1.46745,-9.30496 -3.03824,-13.71673 -4.13999,-11.62774 -8.76539,-23.57478 -16.64137,-33.07809 -8.10146,-9.77537 -18.2999,-18.86498 -30.25579,-23.13677 -8.34666,-2.98223 -18.39269,-4.29629 -26.57541,-0.88988 -10.46357,4.35591 -20.52758,13.8869 -23.13677,24.91652 -3.41429,14.43292 4.12344,30.44632 12.45826,42.71405 7.60253,11.18989 19.58299,19.63009 32.03552,24.91653 17.37614,7.37664 37.2263,9.25608 56.06216,8.00885 15.30647,-1.01353 31.39222,-4.17188 44.30157,-12.45825 11.38744,-7.30947 22.51342,-17.95208 26.26418,-30.95338 3.48833,-12.09163 0.98333,-26.49357 -5.33923,-37.3748 -6.85211,-11.7926 -20.254,-18.73586 -32.32486,-25.08498 -12.13874,-6.38483 -39.20411,-12.49294 -39.20411,-12.49294"
           id="path4659"
           sodipodi:nodetypes="caaaaaaaaaaaac" />
      </g>
      <path
         style="fill:#e5e5e5;fill-opacity:1;stroke:#000000;stroke-width:2;stroke-linecap:butt;stroke-linejoin:miter;stroke-opacity:1;stroke-dasharray:none"
         d="m 257.47938,105.93129 c 0,0 22.51451,11.12513 34.56447,14.35728 27.37967,7.34402 55.99322,9.98149 84.32018,11.06059 18.69501,0.71218 37.33453,-3.00456 56.04306,-3.04483 17.31398,-0.0373 36.74434,-5.81798 51.87722,2.59458 8.58688,4.77355 14.69427,14.6261 16.78832,24.22487 1.84112,8.43936 0.0689,18.21112 -4.54851,25.51126 -5.41073,8.55437 -15.43719,13.60623 -24.72685,17.62562 -13.08265,5.66051 -27.68909,7.84431 -41.93343,8.3882 -18.21173,0.69538 -36.21687,-4.14132 -54.27458,-6.60505 C 339.38832,195.10468 267.21268,183.6535 267.21268,183.6535"
         id="path805"
         sodipodi:nodetypes="caaaaaaaaac" />
      <g
         id="g4673"
         style="stroke-width:2;stroke-dasharray:none">
        <path
           style="fill:none;stroke:#000000;stroke-width:2;stroke-linecap:butt;stroke-linejoin:miter;stroke-opacity:1;stroke-dasharray:none"
           d="m 233.14748,134.37126 c 0,0 -2.80626,21.21298 -8.00888,30.25578 -4.81149,8.36297 -12.72637,14.70778 -20.46714,20.46715 -7.02748,5.22866 -23.13678,12.45826 -23.13678,12.45826"
           id="path803"
           sodipodi:nodetypes="caac" />
        <path
           style="fill:#e5e5e5;fill-opacity:1;stroke:#000000;stroke-width:2;stroke-linecap:butt;stroke-linejoin:miter;stroke-opacity:1;stroke-dasharray:none"
           d="m 125.4725,258.95389 c 0,0 -28.708393,-11.46675 -39.154538,-22.2469 -12.834597,-13.24497 -21.21001,-31.08179 -25.8064,-48.94318 -3.992584,-15.51503 -6.765278,-33.14905 -0.889878,-48.05329 4.846739,-12.29482 16.33681,-21.54021 27.586154,-28.47603 17.728432,-10.93052 39.804702,-12.279497 59.621682,-18.687398 19.63526,-6.349142 42.66042,-6.632559 58.73181,-19.577269 9.94417,-8.009536 14.64164,-21.14922 19.57727,-32.925409 2.25268,-5.37478 0.42978,-12.687971 4.44938,-16.907641 8.15295,-8.558745 22.14408,-12.550891 33.81528,-10.678511 9.02243,1.447445 17.71008,8.085776 22.24691,16.017768 7.98669,13.963569 7.35398,32.231424 4.44936,48.053296 -2.92234,15.918413 -10.49642,31.604604 -21.357,43.603924 -11.71021,12.93803 -28.40441,20.82945 -44.4938,27.58615 -13.79694,5.79399 -43.60392,10.67851 -43.60392,10.67851"
           id="path801"
           sodipodi:nodetypes="caaaaaaaaaaaaac" />
      </g>
    </g>
  </g>
</svg>
